{"glyphs":{"0":{"ha":1042,"x_min":-24,"x_max":1516,"o":"m -24 -98 l 540 879 l 1516 879 l 952 -98 l -24 -98 m 834 184 l 1072 597 l 659 597 l 422 184 l 834 184 z "},"1":{"ha":347,"x_min":-24,"x_max":822,"o":"m 822 879 l 258 -98 l -24 -98 l 540 879 l 822 879 z "},"2":{"ha":1042,"x_min":-24,"x_max":1516,"o":"m 540 879 l 1516 879 l 1153 250 l 458 250 l 422 184 l 1116 184 l 952 -98 l -24 -98 l 339 532 l 1034 532 l 1072 597 l 377 597 l 540 879 z "},"3":{"ha":1042,"x_min":-24,"x_max":1516,"o":"m 952 -98 l -24 -98 l 140 184 l 834 184 l 871 250 l 176 250 l 339 532 l 1034 532 l 1072 597 l 377 597 l 540 879 l 1516 879 l 952 -98 z "},"4":{"ha":1042,"x_min":176,"x_max":1516,"o":"m 822 879 l 621 532 l 1034 532 l 1234 879 l 1516 879 l 952 -98 l 670 -98 l 871 250 l 176 250 l 540 879 l 822 879 z "},"5":{"ha":1042,"x_min":-24,"x_max":1516,"o":"m 140 184 l 834 184 l 871 250 l 176 250 l 540 879 l 1516 879 l 1354 597 l 659 597 l 621 532 l 1316 532 l 952 -98 l -24 -98 l 140 184 z "},"6":{"ha":1042,"x_min":-24,"x_max":1516,"o":"m 1516 879 l 1354 597 l 659 597 l 621 532 l 1316 532 l 952 -98 l -24 -98 l 540 879 l 1516 879 m 458 250 l 422 184 l 834 184 l 871 250 l 458 250 z "},"7":{"ha":1042,"x_min":144,"x_max":1516,"o":"m 540 879 l 1516 879 l 1351 591 l 494 -98 l 144 -98 l 1023 597 l 377 597 l 540 879 z "},"8":{"ha":1042,"x_min":-24,"x_max":1516,"o":"m 659 597 l 621 532 l 1034 532 l 1072 597 l 659 597 m 458 250 l 422 184 l 834 184 l 871 250 l 458 250 m 1198 327 l 952 -98 l -24 -98 l 221 327 l 321 391 l 294 454 l 540 879 l 1516 879 l 1271 454 l 1171 391 l 1198 327 z "},"9":{"ha":1042,"x_min":-24,"x_max":1516,"o":"m -24 -98 l 140 184 l 834 184 l 871 250 l 176 250 l 540 879 l 1516 879 l 952 -98 l -24 -98 m 659 597 l 621 532 l 1034 532 l 1072 597 l 659 597 z "}," ":{"ha":694,"x_min":0,"x_max":0,"o":""},"!":{"ha":347,"x_min":-24,"x_max":822,"o":"m 822 879 l 458 250 l 176 250 l 540 879 l 822 879 m 422 184 l 258 -98 l -24 -98 l 140 184 l 422 184 z "},"\"":{"ha":694,"x_min":277,"x_max":1169,"o":"m 277 423 l 540 879 l 822 879 l 559 423 l 277 423 m 624 423 l 887 879 l 1169 879 l 906 423 l 624 423 z "},"#":{"ha":1042,"x_min":76,"x_max":1416,"o":"m 412 358 l 450 423 l 277 423 l 439 705 l 613 705 l 713 879 l 996 879 l 895 705 l 960 705 l 1061 879 l 1343 879 l 1242 705 l 1416 705 l 1253 423 l 1080 423 l 1042 358 l 1215 358 l 1053 76 l 879 76 l 779 -98 l 496 -98 l 597 76 l 532 76 l 431 -98 l 149 -98 l 250 76 l 76 76 l 239 358 l 412 358 m 732 423 l 694 358 l 760 358 l 798 423 l 732 423 z "},"$":{"ha":1042,"x_min":-24,"x_max":1516,"o":"m 887 879 l 937 966 l 1219 966 l 1169 879 l 1516 879 l 1279 467 l 997 467 l 1072 597 l 793 597 l 1152 247 l 952 -98 l 605 -98 l 555 -184 l 273 -184 l 323 -98 l -24 -98 l 214 315 l 496 315 l 422 184 l 700 184 l 340 534 l 540 879 l 887 879 z "},"%":{"ha":1082,"x_min":-84,"x_max":1615,"o":"m -84 -98 l 1268 879 l 1615 879 l 270 -98 l -84 -98 m 418 597 l 581 879 l 863 879 l 700 597 l 418 597 m 711 -98 l 875 184 l 1157 184 l 993 -98 l 711 -98 z "},"&":{"ha":1042,"x_min":176,"x_max":1316,"o":"m 686 532 l 887 879 l 1169 879 l 968 532 l 1316 532 l 1153 250 l 806 250 l 605 -98 l 323 -98 l 524 250 l 176 250 l 339 532 l 686 532 z "},"'":{"ha":347,"x_min":277,"x_max":822,"o":"m 277 423 l 540 879 l 822 879 l 559 423 l 277 423 z "},"(":{"ha":1042,"x_min":-123,"x_max":1617,"o":"m 1454 770 l 760 770 l 321 11 l 1016 11 l 853 -271 l -123 -271 l 640 1053 l 1617 1053 l 1454 770 z "},")":{"ha":1042,"x_min":-123,"x_max":1617,"o":"m 640 1053 l 1617 1053 l 853 -271 l -123 -271 l 39 11 l 734 11 l 1172 770 l 477 770 l 640 1053 z "},"*":{"ha":694,"x_min":277,"x_max":1069,"o":"m 613 705 l 713 879 l 996 879 l 895 705 l 1069 705 l 906 423 l 732 423 l 632 250 l 350 250 l 450 423 l 277 423 l 439 705 l 613 705 z "},"+":{"ha":1042,"x_min":176,"x_max":1316,"o":"m 686 532 l 887 879 l 1169 879 l 968 532 l 1316 532 l 1153 250 l 806 250 l 605 -98 l 323 -98 l 524 250 l 176 250 l 339 532 l 686 532 z "},",":{"ha":347,"x_min":-24,"x_max":521,"o":"m 521 358 l 258 -98 l -24 -98 l 239 358 l 521 358 z "},"-":{"ha":1042,"x_min":176,"x_max":1316,"o":"m 176 250 l 339 532 l 1316 532 l 1153 250 l 176 250 z "},".":{"ha":347,"x_min":-24,"x_max":422,"o":"m -24 -98 l 140 184 l 422 184 l 258 -98 l -24 -98 z "},"/":{"ha":1082,"x_min":-84,"x_max":1615,"o":"m -84 -98 l 1268 879 l 1615 879 l 270 -98 l -84 -98 z "},":":{"ha":347,"x_min":76,"x_max":722,"o":"m 722 705 l 559 423 l 277 423 l 439 705 l 722 705 m 521 358 l 358 76 l 76 76 l 239 358 l 521 358 z "},";":{"ha":347,"x_min":-24,"x_max":722,"o":"m 722 705 l 559 423 l 277 423 l 439 705 l 722 705 m 521 358 l 258 -98 l -24 -98 l 239 358 l 521 358 z "},"<":{"ha":1042,"x_min":187,"x_max":1531,"o":"m 1531 905 l 1363 613 l 640 393 l 1107 168 l 937 -123 l 187 267 l 330 514 l 1531 905 z "},"=":{"ha":1042,"x_min":76,"x_max":1416,"o":"m 277 423 l 439 705 l 1416 705 l 1253 423 l 277 423 m 76 76 l 239 358 l 1215 358 l 1053 76 l 76 76 z "},">":{"ha":1042,"x_min":-39,"x_max":1306,"o":"m 1306 514 l 1164 267 l -39 -123 l 130 168 l 854 393 l 387 613 l 555 905 l 1306 514 z "},"?":{"ha":1042,"x_min":277,"x_max":1516,"o":"m 769 184 l 605 -98 l 323 -98 l 487 184 l 769 184 m 540 879 l 1516 879 l 1153 250 l 524 250 l 686 532 l 1034 532 l 1072 597 l 659 597 l 559 423 l 277 423 l 540 879 z "},"@":{"ha":1042,"x_min":-24,"x_max":1516,"o":"m 524 250 l 686 532 l 1034 532 l 1072 597 l 659 597 l 422 184 l 1116 184 l 952 -98 l -24 -98 l 540 879 l 1516 879 l 1153 250 l 524 250 z "},"A":{"ha":1042,"x_min":-24,"x_max":1516,"o":"m 1516 879 l 952 -98 l 670 -98 l 770 76 l 358 76 l 258 -98 l -24 -98 l 540 879 l 1516 879 m 659 597 l 521 358 l 933 358 l 1072 597 l 659 597 z "},"B":{"ha":1042,"x_min":-24,"x_max":1516,"o":"m 1034 532 l 1072 597 l 659 597 l 621 532 l 1034 532 m 458 250 l 422 184 l 834 184 l 871 250 l 458 250 m 1171 391 l 1198 327 l 952 -98 l -24 -98 l 540 879 l 1516 879 l 1271 454 l 1171 391 z "},"C":{"ha":1042,"x_min":-24,"x_max":1516,"o":"m 540 879 l 1516 879 l 1354 597 l 659 597 l 422 184 l 1116 184 l 952 -98 l -24 -98 l 540 879 z "},"D":{"ha":1042,"x_min":-24,"x_max":1516,"o":"m 659 597 l 422 184 l 834 184 l 1072 597 l 659 597 m 920 879 l 1516 879 l 952 -98 l -24 -98 l 540 879 l 822 879 l 726 712 l 920 879 z "},"E":{"ha":1042,"x_min":-24,"x_max":1516,"o":"m 1516 879 l 1354 597 l 659 597 l 621 532 l 1316 532 l 1153 250 l 458 250 l 422 184 l 1116 184 l 952 -98 l -24 -98 l 540 879 l 1516 879 z "},"F":{"ha":1042,"x_min":-24,"x_max":1516,"o":"m 540 879 l 1516 879 l 1354 597 l 659 597 l 621 532 l 1316 532 l 1153 250 l 458 250 l 258 -98 l -24 -98 l 540 879 z "},"G":{"ha":1042,"x_min":-24,"x_max":1516,"o":"m 952 -98 l -24 -98 l 540 879 l 1516 879 l 1354 597 l 659 597 l 422 184 l 834 184 l 871 250 l 697 250 l 860 532 l 1316 532 l 952 -98 z "},"H":{"ha":1042,"x_min":-24,"x_max":1516,"o":"m 822 879 l 621 532 l 1034 532 l 1234 879 l 1516 879 l 952 -98 l 670 -98 l 871 250 l 458 250 l 258 -98 l -24 -98 l 540 879 l 822 879 z "},"I":{"ha":347,"x_min":-24,"x_max":822,"o":"m 822 879 l 258 -98 l -24 -98 l 540 879 l 822 879 z "},"J":{"ha":1042,"x_min":-24,"x_max":1516,"o":"m 422 184 l 834 184 l 1234 879 l 1516 879 l 952 -98 l -24 -98 l 239 358 l 521 358 l 422 184 z "},"K":{"ha":1042,"x_min":-24,"x_max":1610,"o":"m -24 -98 l 540 879 l 822 879 l 655 589 l 1191 879 l 1610 879 l 738 381 l 1051 -98 l 624 -98 l 426 193 l 258 -98 l -24 -98 z "},"L":{"ha":1042,"x_min":-24,"x_max":1116,"o":"m 952 -98 l -24 -98 l 540 879 l 822 879 l 422 184 l 1116 184 l 952 -98 z "},"M":{"ha":1389,"x_min":-24,"x_max":1864,"o":"m 1309 879 l 1864 879 l 1299 -98 l 1017 -98 l 1419 597 l 1236 597 l 1147 541 l 779 -98 l 496 -98 l 865 541 l 842 597 l 659 597 l 258 -98 l -24 -98 l 540 879 l 1095 879 l 1141 772 l 1309 879 z "},"N":{"ha":1042,"x_min":-24,"x_max":1516,"o":"m -24 -98 l 540 879 l 792 879 l 933 358 l 1234 879 l 1516 879 l 952 -98 l 700 -98 l 551 410 l 258 -98 l -24 -98 z "},"O":{"ha":1042,"x_min":-24,"x_max":1516,"o":"m 659 597 l 422 184 l 834 184 l 1072 597 l 659 597 m 1516 879 l 952 -98 l -24 -98 l 540 879 l 1516 879 z "},"P":{"ha":1042,"x_min":-24,"x_max":1516,"o":"m 1034 532 l 1072 597 l 659 597 l 621 532 l 1034 532 m 258 -98 l -24 -98 l 540 879 l 1516 879 l 1153 250 l 458 250 l 258 -98 z "},"Q":{"ha":1042,"x_min":-24,"x_max":1516,"o":"m 659 597 l 422 184 l 834 184 l 1072 597 l 659 597 m 358 -98 l -24 -98 l 540 879 l 1516 879 l 952 -98 l 800 -98 l 899 -228 l 457 -228 l 358 -98 z "},"R":{"ha":1042,"x_min":-24,"x_max":1516,"o":"m 659 597 l 621 532 l 1034 532 l 1072 597 l 659 597 m 553 250 l 458 250 l 258 -98 l -24 -98 l 540 879 l 1516 879 l 1153 250 l 913 250 l 1019 -98 l 659 -98 l 553 250 z "},"S":{"ha":1042,"x_min":-24,"x_max":1516,"o":"m 340 534 l 540 879 l 1516 879 l 1279 467 l 997 467 l 1072 597 l 793 597 l 1152 247 l 952 -98 l -24 -98 l 214 315 l 496 315 l 422 184 l 700 184 l 340 534 z "},"T":{"ha":1042,"x_min":323,"x_max":1516,"o":"m 540 879 l 1516 879 l 1354 597 l 1006 597 l 605 -98 l 323 -98 l 724 597 l 377 597 l 540 879 z "},"U":{"ha":1042,"x_min":-24,"x_max":1516,"o":"m 822 879 l 422 184 l 834 184 l 1234 879 l 1516 879 l 952 -98 l -24 -98 l 540 879 l 822 879 z "},"V":{"ha":1042,"x_min":340,"x_max":1542,"o":"m 1542 879 l 587 -98 l 340 -98 l 514 879 l 826 879 l 732 366 l 1230 879 l 1542 879 z "},"W":{"ha":1389,"x_min":-24,"x_max":1864,"o":"m 700 9 l 530 -98 l -24 -98 l 540 879 l 822 879 l 422 184 l 605 184 l 692 240 l 1061 879 l 1343 879 l 974 240 l 998 184 l 1181 184 l 1581 879 l 1864 879 l 1299 -98 l 745 -98 l 700 9 z "},"X":{"ha":1042,"x_min":-79,"x_max":1571,"o":"m 571 391 l 486 879 l 838 879 l 882 625 l 1218 879 l 1571 879 l 924 391 l 1006 -98 l 654 -98 l 610 156 l 274 -98 l -79 -98 l 571 391 z "},"Y":{"ha":1042,"x_min":323,"x_max":1563,"o":"m 323 -98 l 545 288 l 494 879 l 840 879 l 876 614 l 1219 879 l 1563 879 l 827 288 l 605 -98 l 323 -98 z "},"Z":{"ha":1042,"x_min":-79,"x_max":1571,"o":"m 952 -98 l -79 -98 l 844 597 l 377 597 l 540 879 l 1571 879 l 650 184 l 1116 184 l 952 -98 z "},"[":{"ha":694,"x_min":-123,"x_max":1270,"o":"m 1107 770 l 760 770 l 321 11 l 669 11 l 506 -271 l -123 -271 l 640 1053 l 1270 1053 l 1107 770 z "},"\\":{"ha":1082,"x_min":481,"x_max":1053,"o":"m 699 -98 l 481 879 l 829 879 l 1053 -98 l 699 -98 z "},"]":{"ha":694,"x_min":-123,"x_max":1270,"o":"m 640 1053 l 1270 1053 l 506 -271 l -123 -271 l 39 11 l 387 11 l 825 770 l 477 770 l 640 1053 z "},"^":{"ha":694,"x_min":422,"x_max":1160,"o":"m 422 770 l 1078 1261 l 1160 770 l 852 770 l 840 846 l 730 770 l 422 770 z "},"_":{"ha":1042,"x_min":-123,"x_max":1016,"o":"m -123 -271 l 39 11 l 1016 11 l 853 -271 l -123 -271 z "},"`":{"ha":521,"x_min":671,"x_max":1002,"o":"m 707 1226 l 1002 1226 l 967 770 l 671 770 l 707 1226 z "},"a":{"ha":1042,"x_min":-24,"x_max":1516,"o":"m 1516 879 l 952 -98 l 670 -98 l 770 76 l 358 76 l 258 -98 l -24 -98 l 540 879 l 1516 879 m 659 597 l 521 358 l 933 358 l 1072 597 l 659 597 z "},"b":{"ha":1042,"x_min":-24,"x_max":1516,"o":"m 1034 532 l 1072 597 l 659 597 l 621 532 l 1034 532 m 458 250 l 422 184 l 834 184 l 871 250 l 458 250 m 1171 391 l 1198 327 l 952 -98 l -24 -98 l 540 879 l 1516 879 l 1271 454 l 1171 391 z "},"c":{"ha":1042,"x_min":-24,"x_max":1516,"o":"m 1279 467 l 997 467 l 1072 597 l 659 597 l 422 184 l 834 184 l 909 315 l 1191 315 l 952 -98 l -24 -98 l 540 879 l 1516 879 l 1279 467 z "},"d":{"ha":1042,"x_min":-24,"x_max":1516,"o":"m 659 597 l 422 184 l 834 184 l 1072 597 l 659 597 m 920 879 l 1516 879 l 952 -98 l -24 -98 l 540 879 l 822 879 l 726 712 l 920 879 z "},"e":{"ha":1042,"x_min":-24,"x_max":1516,"o":"m 689 533 l 1316 532 l 1153 250 l 526 251 l 689 533 m 422 184 l 1116 184 l 952 -98 l -24 -98 l 540 879 l 1516 879 l 1354 597 l 659 597 l 422 184 z "},"f":{"ha":1042,"x_min":-24,"x_max":1516,"o":"m 540 879 l 1516 879 l 1354 597 l 659 597 l 621 532 l 1316 532 l 1153 250 l 458 250 l 258 -98 l -24 -98 l 540 879 z "},"g":{"ha":1042,"x_min":-24,"x_max":1516,"o":"m 575 -98 l -24 -98 l 540 879 l 1516 879 l 1354 597 l 659 597 l 422 184 l 834 184 l 871 250 l 697 250 l 860 532 l 1316 532 l 952 -98 l 670 -98 l 750 41 l 575 -98 z "},"h":{"ha":1042,"x_min":-24,"x_max":1516,"o":"m 822 879 l 621 532 l 1034 532 l 1234 879 l 1516 879 l 952 -98 l 670 -98 l 871 250 l 458 250 l 258 -98 l -24 -98 l 540 879 l 822 879 z "},"i":{"ha":347,"x_min":-24,"x_max":822,"o":"m 822 879 l 258 -98 l -24 -98 l 540 879 l 822 879 z "},"j":{"ha":1042,"x_min":-24,"x_max":1516,"o":"m 422 184 l 834 184 l 1234 879 l 1516 879 l 952 -98 l -24 -98 l 239 358 l 521 358 l 422 184 z "},"k":{"ha":1042,"x_min":-24,"x_max":1520,"o":"m 1081 532 l 1316 532 l 952 -98 l 670 -98 l 871 250 l 458 250 l 258 -98 l -24 -98 l 540 879 l 822 879 l 621 532 l 734 532 l 1176 879 l 1520 879 l 1081 532 z "},"l":{"ha":1042,"x_min":-24,"x_max":1116,"o":"m 952 -98 l -24 -98 l 540 879 l 822 879 l 422 184 l 1116 184 l 952 -98 z "},"m":{"ha":1389,"x_min":-24,"x_max":1864,"o":"m 1309 879 l 1864 879 l 1299 -98 l 1017 -98 l 1419 597 l 1236 597 l 1147 541 l 779 -98 l 496 -98 l 865 541 l 842 597 l 659 597 l 258 -98 l -24 -98 l 540 879 l 1095 879 l 1141 772 l 1309 879 z "},"n":{"ha":1042,"x_min":-24,"x_max":1516,"o":"m -24 -98 l 540 879 l 792 879 l 933 358 l 1234 879 l 1516 879 l 952 -98 l 700 -98 l 551 410 l 258 -98 l -24 -98 z "},"o":{"ha":1042,"x_min":-24,"x_max":1516,"o":"m 659 597 l 422 184 l 834 184 l 1072 597 l 659 597 m 1516 879 l 952 -98 l -24 -98 l 540 879 l 1516 879 z "},"p":{"ha":1042,"x_min":-24,"x_max":1516,"o":"m 933 358 l 1072 597 l 659 597 l 521 358 l 933 358 m 258 -98 l -24 -98 l 540 879 l 1516 879 l 1053 76 l 358 76 l 258 -98 z "},"q":{"ha":1042,"x_min":-24,"x_max":1516,"o":"m 659 597 l 422 184 l 834 184 l 1072 597 l 659 597 m 420 -98 l -24 -98 l 540 879 l 1516 879 l 952 -98 l 806 -98 l 873 -228 l 495 -228 l 420 -98 z "},"r":{"ha":1042,"x_min":-24,"x_max":1516,"o":"m 659 597 l 521 358 l 933 358 l 1072 597 l 659 597 m 590 76 l 358 76 l 258 -98 l -24 -98 l 540 879 l 1516 879 l 1053 76 l 935 76 l 962 -98 l 624 -98 l 590 76 z "},"s":{"ha":1042,"x_min":-24,"x_max":1516,"o":"m 340 534 l 540 879 l 1516 879 l 1279 467 l 997 467 l 1072 597 l 793 597 l 1152 247 l 952 -98 l -24 -98 l 214 315 l 496 315 l 422 184 l 700 184 l 340 534 z "},"t":{"ha":1042,"x_min":323,"x_max":1516,"o":"m 540 879 l 1516 879 l 1354 597 l 1006 597 l 605 -98 l 323 -98 l 724 597 l 377 597 l 540 879 z "},"u":{"ha":1042,"x_min":-24,"x_max":1516,"o":"m 822 879 l 422 184 l 834 184 l 1234 879 l 1516 879 l 952 -98 l -24 -98 l 540 879 l 822 879 z "},"v":{"ha":1042,"x_min":340,"x_max":1542,"o":"m 1542 879 l 587 -98 l 340 -98 l 514 879 l 826 879 l 732 366 l 1230 879 l 1542 879 z "},"w":{"ha":1389,"x_min":-24,"x_max":1864,"o":"m 700 9 l 530 -98 l -24 -98 l 540 879 l 822 879 l 422 184 l 605 184 l 692 240 l 1061 879 l 1343 879 l 974 240 l 998 184 l 1181 184 l 1581 879 l 1864 879 l 1299 -98 l 745 -98 l 700 9 z "},"x":{"ha":1042,"x_min":-24,"x_max":1516,"o":"m 1004 391 l 1152 247 l 952 -98 l 670 -98 l 785 100 l 654 229 l 373 100 l 258 -98 l -24 -98 l 175 247 l 488 391 l 340 534 l 540 879 l 822 879 l 708 681 l 840 552 l 1120 681 l 1234 879 l 1516 879 l 1317 534 l 1004 391 z "},"y":{"ha":1042,"x_min":-24,"x_max":1516,"o":"m 834 184 l 871 250 l 176 250 l 540 879 l 822 879 l 621 532 l 1034 532 l 1234 879 l 1516 879 l 952 -98 l -24 -98 l 140 184 l 834 184 z "},"z":{"ha":1042,"x_min":-24,"x_max":1516,"o":"m 952 -98 l -24 -98 l 175 247 l 937 597 l 659 597 l 585 467 l 302 467 l 540 879 l 1516 879 l 1317 534 l 556 184 l 834 184 l 909 315 l 1191 315 l 952 -98 z "},"{":{"ha":1042,"x_min":-24,"x_max":1516,"o":"m -24 -98 l 540 879 l 1516 879 l 952 -98 l -24 -98 z "},"|":{"ha":347,"x_min":-123,"x_max":922,"o":"m -123 -271 l 640 1053 l 922 1053 l 159 -271 l -123 -271 z "},"}":{"ha":1042,"x_min":-24,"x_max":1516,"o":"m -24 -98 l 540 879 l 1516 879 l 952 -98 l -24 -98 z "},"~":{"ha":694,"x_min":103,"x_max":1059,"o":"m 300 463 l 631 643 l 730 513 l 1059 688 l 860 343 l 529 163 l 430 294 l 103 122 l 300 463 z "},"‘":{"ha":347,"x_min":277,"x_max":822,"o":"m 277 423 l 540 879 l 822 879 l 559 423 l 277 423 z "},"’":{"ha":347,"x_min":277,"x_max":822,"o":"m 277 423 l 540 879 l 822 879 l 559 423 l 277 423 z "},"“":{"ha":694,"x_min":277,"x_max":1169,"o":"m 277 423 l 540 879 l 822 879 l 559 423 l 277 423 m 624 423 l 887 879 l 1169 879 l 906 423 l 624 423 z "},"”":{"ha":694,"x_min":277,"x_max":1169,"o":"m 277 423 l 540 879 l 822 879 l 559 423 l 277 423 m 624 423 l 887 879 l 1169 879 l 906 423 l 624 423 z "},"£":{"ha":1128,"x_min":62,"x_max":1603,"o":"m 426 532 l 627 879 l 1603 879 l 1366 467 l 1084 467 l 1158 597 l 746 597 l 708 532 l 1055 532 l 892 250 l 545 250 l 509 184 l 1203 184 l 1039 -98 l 62 -98 l 263 250 l 176 250 l 339 532 l 426 532 z "},"¥":{"ha":1042,"x_min":179,"x_max":1563,"o":"m 705 76 l 605 -98 l 323 -98 l 423 76 l 179 76 l 342 358 l 540 358 l 494 879 l 841 879 l 860 594 l 1219 879 l 1563 879 l 914 358 l 1145 358 l 982 76 l 705 76 z "},"€":{"ha":1128,"x_min":62,"x_max":1603,"o":"m 1039 -98 l 62 -98 l 263 250 l 176 250 l 339 532 l 426 532 l 627 879 l 1603 879 l 1440 597 l 746 597 l 708 532 l 1402 532 l 1240 250 l 545 250 l 509 184 l 1203 184 l 1039 -98 z "},"¢":{"ha":1042,"x_min":-24,"x_max":1516,"o":"m 1279 467 l 997 467 l 1072 597 l 659 597 l 422 184 l 834 184 l 909 315 l 1191 315 l 952 -98 l 605 -98 l 555 -184 l 273 -184 l 323 -98 l -24 -98 l 540 879 l 887 879 l 937 966 l 1219 966 l 1169 879 l 1516 879 l 1279 467 z "},"÷":{"ha":1042,"x_min":176,"x_max":1316,"o":"m 176 250 l 339 532 l 1316 532 l 1153 250 l 176 250 m 1169 879 l 1006 597 l 724 597 l 887 879 l 1169 879 m 769 184 l 605 -98 l 323 -98 l 487 184 l 769 184 z "}}}
